<svg width="22" height="19" viewBox="0 0 22 19" fill="none" xmlns="http://www.w3.org/2000/svg">
<path d="M21 3.72723V14.6363C21 15.3597 20.7366 16.0534 20.2678 16.5648C19.7989 17.0763 19.163 17.3636 18.5 17.3636H3.5C2.83696 17.3636 2.20107 17.0763 1.73223 16.5648C1.26339 16.0534 1 15.3597 1 14.6363V3.72723" stroke="#757575" stroke-width="1.4" stroke-linecap="round" stroke-linejoin="round"/>
<path d="M21 3.72728C21 3.00396 20.7366 2.31026 20.2678 1.7988C19.7989 1.28734 19.163 1 18.5 1H3.5C2.83696 1 2.20107 1.28734 1.73223 1.7988C1.26339 2.31026 1 3.00396 1 3.72728L9.675 9.63638C10.0723 9.90729 10.5314 10.0509 11 10.0509C11.4686 10.0509 11.9277 9.90729 12.325 9.63638L21 3.72728Z" stroke="#757575" stroke-width="1.4" stroke-linecap="round" stroke-linejoin="round"/>
</svg>
