<svg width="30" height="30" viewBox="0 0 30 30" fill="none" xmlns="http://www.w3.org/2000/svg">
<path d="M22.5 25L27.2804 20.2196C27.421 20.079 27.5 19.8883 27.5 19.6894V13.125C27.5 12.0895 26.6605 11.25 25.625 11.25C24.5895 11.25 23.75 12.0895 23.75 13.125V18.75" stroke="black" stroke-width="1.5" stroke-linecap="round" stroke-linejoin="round"/>
<path d="M22.5 20L23.5726 18.9274C23.6863 18.8138 23.75 18.6598 23.75 18.4993C23.75 18.2699 23.6204 18.0603 23.4153 17.9576L22.8616 17.6809C21.8993 17.1996 20.7367 17.3883 19.9759 18.1491L18.8573 19.2678C18.3884 19.7366 18.125 20.3725 18.125 21.0355V25" stroke="black" stroke-width="1.5" stroke-linecap="round" stroke-linejoin="round"/>
<path d="M7.5 25L2.71968 20.2196C2.57901 20.079 2.5 19.8883 2.5 19.6894V13.125C2.5 12.0895 3.33946 11.25 4.375 11.25C5.41054 11.25 6.25 12.0895 6.25 13.125V18.75" stroke="black" stroke-width="1.5" stroke-linecap="round" stroke-linejoin="round"/>
<path d="M7.5 20L6.42734 18.9274C6.31379 18.8138 6.25 18.6598 6.25 18.4993C6.25 18.2699 6.37957 18.0603 6.5847 17.9576L7.13834 17.6809C8.1008 17.1996 9.26324 17.3883 10.0241 18.1491L11.1428 19.2678C11.6116 19.7366 11.875 20.3725 11.875 21.0355V25" stroke="black" stroke-width="1.5" stroke-linecap="round" stroke-linejoin="round"/>
<path d="M17.0834 15H12.9166V12.0833H10V7.91666H12.9166V5H17.0834V7.91666H20V12.0833H17.0834V15Z" stroke="black" stroke-width="1.5" stroke-linecap="round" stroke-linejoin="round"/>
</svg>
