<svg width="30" height="30" viewBox="0 0 30 30" fill="none" xmlns="http://www.w3.org/2000/svg">
<path d="M3.75 25.5V4.5C3.75 4.08579 4.08579 3.75 4.5 3.75H25.5C25.9142 3.75 26.25 4.08579 26.25 4.5V25.5C26.25 25.9142 25.9142 26.25 25.5 26.25H4.5C4.08579 26.25 3.75 25.9142 3.75 25.5Z" stroke="black" stroke-width="1.5"/>
<path d="M18.75 10.625C17.8937 9.76876 16.3859 9.17319 15 9.1359M15 9.1359C13.3511 9.09153 11.875 9.83747 11.875 11.875C11.875 15.625 18.75 13.75 18.75 17.5C18.75 19.6387 16.9203 20.5578 15 20.4888M15 9.1359V6.875M11.25 18.75C12.0556 19.8241 13.5535 20.4368 15 20.4888M15 20.4888V23.125" stroke="black" stroke-width="1.5" stroke-linecap="round" stroke-linejoin="round"/>
</svg>
