<svg width="22" height="22" viewBox="0 0 22 22" fill="none" xmlns="http://www.w3.org/2000/svg">
<path d="M13.7006 20.2207L13.7115 20.2284C14.6559 20.8296 15.7771 21.0908 16.89 20.9685C18.0028 20.8463 19.0406 20.3481 19.832 19.5562L20.5195 18.8687C20.6718 18.7165 20.7927 18.5357 20.8751 18.3367C20.9576 18.1378 21 17.9245 21 17.7091C21 17.4937 20.9576 17.2805 20.8751 17.0815C20.7927 16.8825 20.6718 16.7017 20.5195 16.5495L17.6199 13.6521C17.4676 13.4998 17.2869 13.3789 17.0879 13.2965C16.8889 13.214 16.6756 13.1716 16.4603 13.1716C16.2449 13.1716 16.0316 13.214 15.8326 13.2965C15.6337 13.3789 15.4529 13.4998 15.3007 13.6521C14.9932 13.9595 14.5763 14.1321 14.1416 14.1321C13.7069 14.1321 13.29 13.9595 12.9825 13.6521L8.34625 9.01475C8.03891 8.70731 7.86626 8.2904 7.86626 7.85568C7.86626 7.42097 8.03891 7.00405 8.34625 6.69662C8.4986 6.54437 8.61945 6.36359 8.70191 6.16462C8.78436 5.96565 8.8268 5.75238 8.8268 5.537C8.8268 5.32162 8.78436 5.10836 8.70191 4.90938C8.61945 4.71041 8.4986 4.52964 8.34625 4.37739L5.44777 1.48C5.14033 1.17266 4.72342 1 4.2887 1C3.85399 1 3.43707 1.17266 3.12964 1.48L2.44108 2.16746C1.64934 2.95895 1.15132 3.99686 1.02931 5.1097C0.907291 6.22254 1.16859 7.34371 1.77001 8.28794L1.77657 8.29887C4.95286 12.9983 9.00058 17.0453 13.7006 20.2207V20.2207Z" stroke="#757575" stroke-width="1.4" stroke-linecap="round" stroke-linejoin="round"/>
</svg>
